<?xml version="1.0" encoding="utf-8"?>
<!-- Generator: Adobe Illustrator 26.5.0, SVG Export Plug-In . SVG Version: 6.00 Build 0)  -->
<svg version="1.1" id="Calque_1" xmlns="http://www.w3.org/2000/svg" xmlns:xlink="http://www.w3.org/1999/xlink" x="0px" y="0px"
	 viewBox="0 0 203 69.2" style="enable-background:new 0 0 203 69.2;" xml:space="preserve">
<style type="text/css">
	.st0{fill:#5F9FD6;}
	.st1{enable-background:new    ;}
	.st2{fill:#1D1D1B;}
</style>
<g>
	<path class="st0" d="M11.7,28.9c0.7-0.5,1.3-0.9,2-1.3c2.7-1.5,5.5-2.9,8.6-3.6c1.9-0.5,3.9-0.6,5.9-0.5c0.5,0,1.1,0.2,1.5,0.4
		c2.8,1.5,5.4,3.3,7.7,5.4c2.5,2.4,4.5,5.1,6,8.1c1.4,2.9,2.3,5.9,2.2,9.2c0,1.5-0.2,2.9-0.6,4.3c-0.4,1.3-1,2.5-1.9,3.5
		c-1.6,2.1-3.7,3.7-6.1,4.8c-1.3,0.6-2.8,1-4.2,1.4c-1.9,0.5-3.9,0.6-5.8,0.6c-2.1,0-4.2,0-6.3-0.1c-2.9-0.2-5.8-0.7-8.5-1.7
		C9.8,58.5,7.7,57,6.1,55c-1.5-1.8-2.4-4-2.5-6.5c-0.1-1.2,0-2.5,0.2-3.6c0.2-1.2,0.6-2.4,1-3.5c1.3-3.6,3.3-6.8,5.7-9.7
		c0.6-0.8,0.5-0.6,1.2-0.3c3.1,1.5,5.9,3.3,8.3,5.9c0.3,0.3,0.3,0.6,0.1,1c-1.5,2.2-2.5,4.6-3.1,7.1c-0.5,2.4-0.1,4.7,1.5,6.7
		c0.8,1,2.1,1.5,3.3,1.8c1.5,0.4,3,0.1,4.4-0.4c0.1,0,0.2-0.1,0.2-0.1c2-0.6,2.2-1.5,2-3.3c-0.2-1.5-0.5-2.9-0.9-4.3
		c-0.8-3.1-2.2-6-4.1-8.6c-1.7-2.3-3.8-4.1-6.2-5.7c-1.5-1-3.2-1.8-4.9-2.4C12.1,29,11.9,29,11.7,28.9L11.7,28.9z"/>
	<path class="st0" d="M24.2,4.1c1.5-0.3,2.6,0.5,3.5,1.6c0.5,0.6,0.6,1.4,0.8,2.2c0.1,0.7,0,1.4-0.1,2.2c-0.3,1.7-1,3.1-1.8,4.6
		c-0.1,0.1-0.3,0.3-0.4,0.3c-1.3,0.2-2.7,0.2-4,0.4c-2.3,0.4-4.6,0.9-6.8,1.8c-1,0.4-2.1,0.9-3.1,1.4c-1.4,0.7-2.6,1.6-3.7,2.6
		c-0.4,0.3-0.7,0.3-1.1,0c-1.4-1-3-1.4-4.6-1.7c-1-0.2-1.1-0.1-0.6-1.1c1.1-2,2.5-3.8,4.2-5.2c1.1-0.9,2.5-1.5,3.9-1.8
		c1.2-0.2,2.3-0.5,3.5-0.8c1.3-0.3,2.2-1,3.1-2c1.2-1.4,2.3-2.9,4-3.8C22,4.3,23,3.9,24.2,4.1L24.2,4.1z"/>
	<path d="M28.6,21.5c-0.9,0-1.7,0-2.5,0c-3.8,0-7.3,1-10.6,2.7c-1.4,0.8-2.8,1.6-4.2,2.5c-0.3,0.2-0.6,0.2-0.8-0.1
		c-0.6-0.6-1.2-1.2-1.8-1.8c-0.2-0.2-0.2-0.4,0-0.6c2.6-2.6,5.6-4.7,9.1-6c2.7-1,5.6-1.5,8.5-1.6c1.4,0,1.4,0,1.7,1.3
		c0.2,1,0.4,2,0.6,3.1C28.6,21.3,28.6,21.4,28.6,21.5L28.6,21.5z"/>
	<path d="M41.5,23c-2-0.7-3.9-1.2-5.8-1.3c-1.5-0.1-3-0.2-4.5-0.2c-0.4,0-0.6-0.1-0.7-0.5c-0.1-0.9-0.4-1.9-0.6-2.9
		c0.6-0.1,1.1-0.2,1.6-0.3c3.1-0.4,6.3-0.3,9.2,0.9c1.7,0.7,1.4,0.3,1.2,2C41.9,21.4,41.7,22.2,41.5,23L41.5,23z"/>
	<path d="M30.1,16.5c2.8-2.3,5.9-3.5,9.4-4c0.5-0.1,0.9-0.1,1.4-0.1c0.2,0,0.5,0.2,0.5,0.3c0.3,1.2,0.5,2.3,0.8,3.6
		c-0.5,0.1-0.9,0.1-1.3,0.1c-0.5,0-1,0.2-1.5,0.2s-1-0.1-1.5-0.1c-1.8-0.2-3.5-0.3-5.2-0.1C31.8,16.4,31,16.4,30.1,16.5L30.1,16.5z"
		/>
</g>
<g class="st1">
	<path class="st2" d="M65.8,39.8L65,41.8c-1,2.7-1.9,5.3-2.7,7.9c-0.4,1.3-1,3.5-1.8,6.7c1.2-0.1,2.9-0.4,5-0.9
		c1.3-0.3,2.2-0.5,2.4-0.5c0.5,0,0.8,0.2,0.8,0.7c0,0.6-0.3,1.4-0.9,2.4c-0.6,1-1.2,1.9-1.9,2.6c-0.5,0.5-1.2,0.9-2.2,1.1
		c-1,0.2-2.5,0.3-4.6,0.3c-1.9,0-3.4-0.1-4.5-0.2c0,0-0.3-0.1-0.7-0.3c-0.9-0.4-1.3-1.3-1.3-2.6c0-0.9,0.2-2.7,0.7-5.2
		s1.2-5.6,2.1-9.4c2-8.3,3.6-13.5,4.6-15.4c0.3-0.7,0.7-1.2,1.2-1.6c0.5-0.4,1.2-0.7,2.1-0.9c0.8-0.2,1.8-0.3,2.9-0.3
		c1,0,1.7,0.2,2.1,0.5c0.4,0.3,0.6,0.8,0.6,1.6c0,0.7-0.3,2-0.8,4C67.7,34.3,66.8,36.8,65.8,39.8z"/>
</g>
<g class="st1">
	<path class="st2" d="M75.7,55.7c0.2,0.9,0.7,1.3,1.8,1.3c1.1,0,2.6-0.7,4.4-2c1-0.8,1.8-1.1,2.1-1.1c0.4,0,0.9,0.1,1.3,0.4
		c0.4,0.2,0.6,0.5,0.6,0.7c0,0.3-0.2,0.6-0.7,1.1c-0.8,0.8-1.7,1.6-2.7,2.3c-1,0.8-2,1.4-3,1.9c-1,0.5-1.9,0.9-2.9,1.2
		c-1,0.3-1.8,0.4-2.6,0.4c-1.9,0-3.4-0.5-4.5-1.6c-1.1-1.1-1.7-2.5-1.7-4.3c0-1.4,0.3-2.9,0.9-4.6c0.6-1.7,1.4-3.3,2.4-4.8
		c1.2-1.8,2.6-3.2,4.4-4.4c2.1-1.4,4.2-2.1,6.1-2.1c1.4,0,2.5,0.4,3.3,1.3c0.8,0.9,1.2,2.1,1.2,3.7c0,1.2-0.3,2.5-1,3.8
		c-0.6,1.3-1.6,2.6-2.8,3.8c-1,1-2,1.8-3,2.4c-1,0.6-1.8,0.9-2.6,0.9C76.3,55.9,76,55.8,75.7,55.7z M75.6,54.9
		c0.7-0.5,1.2-0.9,1.6-1.4c0.8-1,1.4-2.1,1.8-3.3c0.3-0.8,0.6-1.7,0.8-2.8c0.2-1,0.3-2,0.3-2.9c0-0.8-0.2-1.2-0.5-1.2
		c-0.5,0-1.2,1.1-2.2,3.2c-0.6,1.3-1.1,2.5-1.4,3.8c-0.4,1.3-0.6,2.4-0.6,3.3C75.4,53.9,75.5,54.4,75.6,54.9z"/>
</g>
<g class="st1">
	<path class="st0" d="M87.6,46.1l2.6-8.1c0.5-1.5,1.1-2.9,1.8-4.2c-0.1,0-0.2,0.1-0.5,0.2c-1,0.4-1.8,0.6-2.2,0.6
		c-0.6,0-0.9-0.2-0.9-0.7c0-0.5,0.2-1.2,0.7-2.1c0.5-0.9,1-1.6,1.4-2.1c1.1-1,2.8-1.8,5-2.4c2.2-0.6,4.7-0.9,7.5-0.9
		c1.7,0,3.2,0.1,4.5,0.4s2.5,0.7,3.5,1.3c1,0.6,1.7,1.2,2.2,2s0.8,1.7,0.8,2.7c0,1.4-0.3,2.6-0.9,3.6c-0.6,1.1-1.5,2.1-2.7,3
		c-1.4,1-2.7,1.7-3.9,2c-0.1,0-0.4,0.1-0.7,0.1v0.1c5.3,0.7,7.9,2.8,7.9,6.5c0,0.7-0.1,1.5-0.4,2.3s-0.6,1.6-1.1,2.3s-1,1.5-1.7,2.1
		c-1.4,1.4-3.1,2.7-5.1,3.9s-3.9,2.2-5.9,2.9s-3.7,1.1-5.1,1.1c-1.2,0-2.3-0.1-3.4-0.4c-1.1-0.3-2-0.6-2.6-1.1c-0.6-0.4-1-0.9-1-1.4
		c0-0.5,0.1-0.9,0.4-1.3c0.3-0.4,0.7-0.9,1.4-1.5L89.4,57c-0.4,0.1-0.8,0.2-1.2,0.2c-0.8,0-1.5-0.2-2-0.7c-0.5-0.5-0.8-1.1-0.8-2
		c0-0.5,0.2-1.5,0.6-3.2C86.5,49.6,87,47.9,87.6,46.1z M97.4,43.1c-0.1,0.2-0.1,0.4-0.2,0.7s-0.1,0.5-0.2,0.7
		c-0.7,2.4-1.4,4.3-1.9,5.8c-0.6,1.5-1.2,2.7-1.9,3.8c-0.4,0.6-0.9,1.3-1.6,2c1.8,0.6,3.1,0.9,3.9,1.1c0.8,0.2,1.5,0.2,2.3,0.2
		c0.9,0,1.7-0.1,2.3-0.4c0.7-0.3,1.3-0.7,1.9-1.3c0.9-0.9,1.6-1.9,2.2-3.1c0.6-1.2,0.8-2.4,0.8-3.5c0-1.2-0.4-2.3-1.3-3.1
		c-0.4-0.4-0.9-0.7-1.4-1c-0.5-0.2-1.2-0.4-2.1-0.6c-0.8-0.2-1.4-0.3-1.8-0.5C98.1,43.8,97.7,43.5,97.4,43.1z M100.7,31.6l-2.9,9.8
		c0.2,0,0.4,0,0.5,0c0.8,0,1.7-0.4,2.8-1.1c1.3-0.9,2.3-1.9,3.1-2.9c0.7-1,1.1-2.1,1.1-3c0-2.1-1.1-3.1-3.2-3.1
		C101.4,31.3,101,31.4,100.7,31.6z"/>
</g>
<g class="st1">
	<path class="st0" d="M120.9,55.7c0.2,0.9,0.7,1.3,1.8,1.3c1.1,0,2.6-0.7,4.4-2c1-0.8,1.8-1.1,2.1-1.1c0.4,0,0.9,0.1,1.3,0.4
		s0.6,0.5,0.6,0.7c0,0.3-0.2,0.6-0.7,1.1c-0.8,0.8-1.7,1.6-2.7,2.3c-1,0.8-2,1.4-3,1.9c-1,0.5-1.9,0.9-2.9,1.2
		c-1,0.3-1.8,0.4-2.6,0.4c-1.9,0-3.4-0.5-4.5-1.6c-1.1-1.1-1.7-2.5-1.7-4.3c0-1.4,0.3-2.9,0.9-4.6c0.6-1.7,1.4-3.3,2.4-4.8
		c1.2-1.8,2.6-3.2,4.4-4.4c2.1-1.4,4.2-2.1,6.1-2.1c1.4,0,2.5,0.4,3.3,1.3c0.8,0.9,1.2,2.1,1.2,3.7c0,1.2-0.3,2.5-1,3.8
		c-0.6,1.3-1.6,2.6-2.8,3.8c-1,1-2,1.8-3,2.4c-1,0.6-1.8,0.9-2.6,0.9C121.5,55.9,121.2,55.8,120.9,55.7z M120.8,54.9
		c0.7-0.5,1.2-0.9,1.6-1.4c0.8-1,1.4-2.1,1.8-3.3c0.3-0.8,0.6-1.7,0.8-2.8s0.3-2,0.3-2.9c0-0.8-0.2-1.2-0.5-1.2
		c-0.5,0-1.2,1.1-2.2,3.2c-0.6,1.3-1.1,2.5-1.4,3.8c-0.4,1.3-0.6,2.4-0.6,3.3C120.6,53.9,120.7,54.4,120.8,54.9z"/>
</g>
<g class="st1">
	<path class="st0" d="M145.8,39.5l0.2-1c0.5-2.2,0.9-4,1.3-5.4c0.4-1.4,0.8-2.5,1.2-3.5c0.4-1,0.8-1.6,1.2-2.1
		c0.6-0.7,1.8-1.1,3.4-1.1c0.7,0,1.3,0,1.6,0.1s0.6,0.2,0.8,0.4c-0.7,2.4-1.2,4.3-1.5,5.5s-0.6,2.9-0.9,5c-0.5,3.5-0.8,6.6-0.8,9.4
		c0,1.8,0.1,3.8,0.4,5.7c0.3,2,0.7,4.2,1.4,6.6c-0.8,0.6-1.6,1.1-2.3,1.5s-1.4,0.8-2.1,1c-0.7,0.2-1.2,0.4-1.7,0.4
		c-0.9,0-1.5-0.5-1.8-1.4c-0.3-0.8-0.5-1.4-0.6-1.8c-0.1-0.5-0.2-1.8-0.5-3.9c-2,2.3-3.9,4.1-5.8,5.4c-1.8,1.3-3.3,2-4.4,2
		c-1.3,0-2.3-0.6-3.1-1.7c-0.8-1.1-1.2-2.6-1.2-4.3c0-1.6,0.3-3.3,0.9-5.3s1.5-3.8,2.6-5.6c0.7-1.2,1.5-2.2,2.2-3
		c0.8-0.8,1.6-1.6,2.6-2.3c1.7-1.2,3.2-1.9,4.4-1.9C143.9,38.3,144.7,38.7,145.8,39.5z M145.1,51.1v-1.4c-0.8,0.7-1.3,1.1-1.7,1.1
		c-0.2,0-0.3-0.1-0.3-0.3c0-0.1,0-0.3,0.1-0.6c0.3-1,0.5-1.9,0.5-2.8c0-1.3-0.3-2.7-0.8-4.1c-0.2-0.7-0.5-1.1-0.8-1.1
		c-0.2,0-0.3,0.1-0.4,0.2c-0.5,0.6-1,1.5-1.4,2.6s-0.8,2.4-1.1,3.7c-0.3,1.3-0.4,2.5-0.4,3.5c0,1.9,0.5,2.9,1.6,2.9
		c0.5,0,1.3-0.3,2.2-1S144.3,52.2,145.1,51.1z"/>
</g>
<g class="st1">
	<path class="st0" d="M168.5,39.3c2.2,0,3.3,0.3,3.3,0.8c0,0.6-0.5,0.9-1.5,1c-1.2,0.1-2.3,0.4-3.4,1c-1,0.6-2,1.5-2.8,2.5
		s-1.5,2.3-1.9,3.6s-0.7,2.7-0.7,4.2c0,1.6,0.4,2.9,1.1,3.9c0.8,1,1.8,1.5,3,1.5c1.1,0,2.1-0.6,3-1.8s1.3-2.5,1.3-4.1
		c0-1.3-0.3-2.5-0.8-3.6c-0.5-1.1-1.3-2.1-2.3-2.8c-0.4-0.3-0.7-0.6-0.7-0.7c0-0.2,0.3-0.5,0.9-1c0.7-0.5,1.5-0.9,2.3-1.2
		s1.6-0.5,2.2-0.5c0.7,0,1.3,0.2,1.9,0.5c0.6,0.4,1.1,0.9,1.6,1.5c0.5,0.7,0.8,1.4,1.1,2.2c0.2,0.8,0.4,1.7,0.4,2.7
		c0,1.6-0.3,3.2-0.9,4.7c-0.6,1.5-1.4,2.8-2.4,3.8c-1.3,1.2-2.8,2.2-4.5,3c-1.8,0.8-3.5,1.2-5.1,1.2c-1.6,0-3.1-0.3-4.6-0.8
		s-2.8-1.2-3.6-2.1c-1.2-1.2-1.8-2.9-1.8-5.1c0-1.7,0.4-3.5,1.3-5.2s2-3.3,3.5-4.7c1.5-1.4,3.1-2.5,4.8-3.3
		C164.9,39.7,166.7,39.3,168.5,39.3z"/>
</g>
<g class="st1">
	<path class="st0" d="M191.6,39.3c2.2,0,3.3,0.3,3.3,0.8c0,0.6-0.5,0.9-1.5,1c-1.2,0.1-2.3,0.4-3.4,1s-2,1.5-2.8,2.5
		c-0.8,1.1-1.5,2.3-1.9,3.6c-0.5,1.3-0.7,2.7-0.7,4.2c0,1.6,0.4,2.9,1.1,3.9c0.8,1,1.8,1.5,3,1.5c1.1,0,2.1-0.6,3-1.8
		s1.3-2.5,1.3-4.1c0-1.3-0.3-2.5-0.8-3.6c-0.5-1.1-1.3-2.1-2.3-2.8c-0.4-0.3-0.7-0.6-0.7-0.7c0-0.2,0.3-0.5,0.9-1
		c0.7-0.5,1.5-0.9,2.3-1.2s1.6-0.5,2.2-0.5c0.7,0,1.3,0.2,1.9,0.5c0.6,0.4,1.1,0.9,1.6,1.5c0.5,0.7,0.8,1.4,1.1,2.2
		c0.2,0.8,0.4,1.7,0.4,2.7c0,1.6-0.3,3.2-0.9,4.7c-0.6,1.5-1.4,2.8-2.4,3.8c-1.3,1.2-2.8,2.2-4.5,3c-1.8,0.8-3.5,1.2-5.1,1.2
		c-1.6,0-3.1-0.3-4.6-0.8c-1.5-0.5-2.8-1.2-3.7-2.1c-1.2-1.2-1.8-2.9-1.8-5.1c0-1.7,0.4-3.5,1.3-5.2s2-3.3,3.5-4.7
		c1.5-1.4,3.1-2.5,4.8-3.3C188,39.7,189.8,39.3,191.6,39.3z"/>
</g>
</svg>
